<svg xmlns="http://www.w3.org/2000/svg" width="47.353" height="30.229" viewBox="0 0 47.353 30.229">
  <path id="Credit_card_2" data-name="Credit card 2" d="M43.652,30.229H3.673A3.7,3.7,0,0,1,0,26.492V3.64A3.706,3.706,0,0,1,3.5,0l.4,0H43.844a3.794,3.794,0,0,1,2.517,1.178,3.624,3.624,0,0,1,.991,2.529V26.56A3.717,3.717,0,0,1,43.652,30.229ZM1.7,15.962V26.5a1.995,1.995,0,0,0,1.983,2.032h39.97a2.006,2.006,0,0,0,2-1.98V15.962H1.7ZM38.465,7.407l-3.417,6.836H45.654V7.407H38.465Zm-4.278,0-3.416,6.836h2.368l3.42-6.836ZM1.7,7.407v6.836H28.858l3.424-6.836ZM3.553,1.7A1.969,1.969,0,0,0,1.7,3.649V5.691H45.655V3.7a2.008,2.008,0,0,0-1.869-2l-.291,0H3.553ZM17.97,24.541H3.7a.849.849,0,0,1,0-1.7H17.97a.849.849,0,0,1,0,1.7Zm5.7-2.853H3.7a.849.849,0,0,1,0-1.7h19.97a.849.849,0,1,1,0,1.7Z" transform="translate(0)"/>
</svg>
