<svg xmlns="http://www.w3.org/2000/svg" width="79.975" height="51.053" viewBox="0 0 79.975 51.053">
  <path id="Credit_card_2" data-name="Credit card 2" d="M73.723,51.053H6.2A6.243,6.243,0,0,1,0,44.742V6.147A6.258,6.258,0,0,1,5.918.005L6.59,0H74.048A6.415,6.415,0,0,1,78.3,1.99a6.123,6.123,0,0,1,1.674,4.271V44.856A6.281,6.281,0,0,1,73.723,51.053ZM2.869,26.958V44.749a3.37,3.37,0,0,0,3.35,3.433h67.5A3.387,3.387,0,0,0,77.1,44.837V26.958H2.869ZM64.963,12.509,59.192,24.056H77.1V12.509H64.963Zm-7.224,0-5.77,11.547h4l5.776-11.547H57.739Zm-54.869,0V24.056H48.739L54.52,12.509ZM6,2.869A3.288,3.288,0,0,0,2.872,6.162V9.611H77.107V6.245a3.392,3.392,0,0,0-3.157-3.381l-.491.005ZM30.35,41.448H6.256a1.435,1.435,0,0,1,0-2.869H30.35a1.435,1.435,0,0,1,0,2.869Zm9.634-4.819H6.256a1.435,1.435,0,0,1,0-2.869H39.984a1.435,1.435,0,1,1,0,2.869Z" transform="translate(0)" fill="#0098ff"/>
</svg>
