<svg xmlns="http://www.w3.org/2000/svg" width="69.407" height="57.326" viewBox="0 0 69.407 57.326">
  <path id="Diamond_2" data-name="Diamond 2" d="M34.7,57.326a1.3,1.3,0,0,1-.5-.105.061.061,0,0,1-.032-.029l0-.006a.057.057,0,0,0-.022-.023,1.076,1.076,0,0,1-.23-.175l-.043-.039a.079.079,0,0,0-.048-.023.1.1,0,0,1-.058-.027L.311,18.944a1.253,1.253,0,0,1-.283-.756.052.052,0,0,0-.01-.028l0-.005A.073.073,0,0,1,0,18.116a.136.136,0,0,1,.023-.068.136.136,0,0,0,.025-.069.854.854,0,0,0,.009-.113v-.017A.619.619,0,0,1,.1,17.624L7.233.765A1.258,1.258,0,0,1,8.391,0h52.63a1.257,1.257,0,0,1,1.157.765l7.133,16.859a.561.561,0,0,1,.036.234c0,.04,0,.082.006.121a.14.14,0,0,0,.025.063.146.146,0,0,1,.028.075.073.073,0,0,1-.014.038l0,0a.061.061,0,0,0-.011.03,1.266,1.266,0,0,1-.287.756L35.642,56.9a.089.089,0,0,1-.049.023.116.116,0,0,0-.061.026l-.026.025-.009.009-.009.008a.873.873,0,0,1-.224.167.072.072,0,0,0-.019.023c-.011.018-.021.034-.04.04A1.306,1.306,0,0,1,34.7,57.326ZM20.039,19.369,34.7,52.934l14.67-33.565Zm-16.009,0,26.3,29.85L17.294,19.369Zm48.083,0h0L39.069,49.215,65.375,19.369H52.113ZM45.964,2.513l6.153,14.351H66.262L60.188,2.513H45.964Zm-19.786,0L20.02,16.863H49.388L43.234,2.513Zm-16.959,0L3.146,16.863H17.294L23.452,2.513Z" fill="#0098ff"/>
</svg>
