<svg xmlns="http://www.w3.org/2000/svg" width="44.994" height="44.979" viewBox="0 0 44.994 44.979">
  <path id="Headset_with_microphone_2" data-name="Headset with microphone 2" d="M33.376,44.979H22.493a.808.808,0,0,1-.809-.806,3.52,3.52,0,0,1,6.007-2.49,3.431,3.431,0,0,1,.869,1.681h4.814a1.9,1.9,0,0,0,1.353-.559,1.874,1.874,0,0,0,.551-1.34V36.813H33.372a.808.808,0,0,1-.808-.806v-16.2A.808.808,0,0,1,33.372,19h1.872V14.357a12.749,12.749,0,0,0-25.5,0V19h1.875a.806.806,0,0,1,.806.806v16.2a.806.806,0,0,1-.806.806H8.908a8.718,8.718,0,0,1-2.982-.545A8.867,8.867,0,0,1,8.133,19.076V14.358a14.362,14.362,0,0,1,28.724,0v4.718a9.126,9.126,0,0,1,2.171.464,8.857,8.857,0,0,1,0,16.743,9.112,9.112,0,0,1-2.138.461v4.722a3.512,3.512,0,0,1-3.516,3.514ZM25.2,42.27a1.921,1.921,0,0,0-1.728,1.094h3.45A1.911,1.911,0,0,0,25.2,42.27Zm8.974-21.651V35.2h1.905a6.739,6.739,0,0,0,1.872-.274V20.892a6.879,6.879,0,0,0-1.872-.273Zm-25.268,0A6.783,6.783,0,0,0,7,20.9V34.922a6.9,6.9,0,0,0,1.905.279h1.9V20.619Zm30.659.926V34.281a7.229,7.229,0,0,0,0-12.738Zm-34.177.014a7.231,7.231,0,0,0,0,12.705Z"/>
</svg>
