<svg xmlns="http://www.w3.org/2000/svg" width="23.263" height="44.922" viewBox="0 0 23.263 44.922">
  <path id="Ice_cream_2" data-name="Ice cream 2" d="M11.631,44.922a.807.807,0,0,1-.756-.525L2.909,23.11a3.464,3.464,0,0,1-1.562-6.161,11.616,11.616,0,1,1,20.561.005,3.512,3.512,0,0,1,1.354,2.762A3.475,3.475,0,0,1,22.234,22.2a3.427,3.427,0,0,1-1.884.913L12.39,44.4A.81.81,0,0,1,11.631,44.922Zm-5.385-23A3.527,3.527,0,0,1,4.6,23.035l7.026,18.777L18.65,23.035a3.456,3.456,0,0,1-1.642-1.113,3.4,3.4,0,0,1-2.677,1.309,3.613,3.613,0,0,1-2.7-1.323A3.379,3.379,0,0,1,10.092,23a3.462,3.462,0,0,1-1.171.228A3.388,3.388,0,0,1,6.246,21.926Zm-.255-1.938a.8.8,0,0,1,.432.129c.125.078.255.147.371.208l.139.074a1.512,1.512,0,0,1,.445.344,1.86,1.86,0,0,0,1.543.876,1.939,1.939,0,0,0,.634-.135,1.871,1.871,0,0,0,1.081-1.02.819.819,0,0,1,.735-.472h.519a.8.8,0,0,1,.732.474A1.9,1.9,0,0,0,13.7,21.48a1.705,1.705,0,0,0,.59.1,1.907,1.907,0,0,0,1.589-.839.8.8,0,0,1,.3-.267l.133-.069c.233-.12.386-.2.532-.293a.8.8,0,0,1,.424-.121.8.8,0,0,1,.742.486,1.9,1.9,0,0,0,1.78,1.1,1.812,1.812,0,0,0,1.3-.517,1.895,1.895,0,0,0-.589-3.083.805.805,0,0,1-.448-.5.818.818,0,0,1,.083-.664,9.837,9.837,0,0,0,1.5-5.2A10,10,0,1,0,3.121,16.806a.809.809,0,0,1-.36,1.163,1.9,1.9,0,1,0,2.493,2.5.813.813,0,0,1,.5-.448A.744.744,0,0,1,5.991,19.988Zm-.868-7.57a.808.808,0,0,1-.808-.806A7.319,7.319,0,0,1,11.625,4.3a.807.807,0,1,1,0,1.615,5.7,5.7,0,0,0-5.7,5.7A.806.806,0,0,1,5.124,12.418Z"/>
</svg>
