<svg xmlns="http://www.w3.org/2000/svg" width="17.002" height="18" viewBox="0 0 17.002 18">
  <path id="Fill_1" data-name="Fill 1" d="M13.367,18A12.384,12.384,0,0,1,6.1,15.516a15,15,0,0,1-4.954-6.25A14.76,14.76,0,0,1,.023,2.778,1.84,1.84,0,0,1,1.725.911l.62,0,.754,0A1.78,1.78,0,0,1,4.731,2.23c.229.88.469,1.819.733,2.871a1.7,1.7,0,0,1-.577,1.714,2.592,2.592,0,0,0-.6.627c-.542.935-.04,2.226,1.49,3.836a12.657,12.657,0,0,0,3.387,2.492,1.064,1.064,0,0,0,.487.116,1.566,1.566,0,0,0,1.313-.876.811.811,0,0,1,.7-.414.686.686,0,0,1,.171.02c.945.25,1.876.511,2.75.758l.151.042A1.842,1.842,0,0,1,16,15.141c0,.055,0,.111,0,.166a3.094,3.094,0,0,1-.423,2.027,1.722,1.722,0,0,1-1.089.609c-.3.035-.44.04-.637.047l-.078,0C13.644,18,13.506,18,13.367,18ZM2.2,1.586H1.747C1.107,1.59.729,2.275.7,2.918c-.02.4-.021.823,0,1.246A14.13,14.13,0,0,0,9.278,16.57a11.2,11.2,0,0,0,4.035.757c.341,0,.673-.015.986-.044a1.145,1.145,0,0,0,1.017-1.089c0-.106.008-.211.013-.292v-.015a2.889,2.889,0,0,0-.1-1.181,1.082,1.082,0,0,0-.683-.639c-.606-.171-1.221-.339-1.817-.5l-.01,0-.008,0-.083-.023-.239-.067-.24-.066L12.13,13.4,12,13.363l-.128-.035-.083-.023-.116-.032a.172.172,0,0,0-.032,0c-.1,0-.159.138-.225.284l-.006.014a1.394,1.394,0,0,1-.171.3,1.934,1.934,0,0,1-1.5.665,2.427,2.427,0,0,1-1.135-.291A11.688,11.688,0,0,1,3.646,9.517,2.523,2.523,0,0,1,4.324,6.4,1.318,1.318,0,0,0,4.8,5.26l-.124-.5L4.635,4.6c-.17-.68-.362-1.45-.566-2.2a1.072,1.072,0,0,0-.977-.8H2.2ZM14.776,12.35a.312.312,0,0,1-.29-.176.44.44,0,0,1,.134-.462,6.985,6.985,0,0,0,.59-8.286A6.186,6.186,0,0,0,10.185.683a5.315,5.315,0,0,0-1.01.1,6.015,6.015,0,0,0-3.2,1.794.5.5,0,0,1-.262.106H5.691a.3.3,0,0,1-.256-.2.453.453,0,0,1,.136-.464A6.66,6.66,0,0,1,10.177,0H10.3a6.879,6.879,0,0,1,6.032,4.049A7.571,7.571,0,0,1,15.1,12.194.441.441,0,0,1,14.776,12.35Zm-1.166-1.227a.3.3,0,0,1-.083-.012.308.308,0,0,1-.22-.208.476.476,0,0,1,.147-.433,5.112,5.112,0,0,0,.41-6.032A4.436,4.436,0,0,0,10.18,2.51,4.131,4.131,0,0,0,7.141,3.817a.465.465,0,0,1-.246.107.3.3,0,0,1-.287-.186.466.466,0,0,1,.151-.5,5.012,5.012,0,0,1,3.469-1.477h.061a5.2,5.2,0,0,1,4.562,3.061,5.741,5.741,0,0,1-.84,6.046A.586.586,0,0,1,13.611,11.123ZM12.39,9.815l-.037,0a.294.294,0,0,1-.25-.184.507.507,0,0,1,.142-.488,3.074,3.074,0,0,0,.638-2.393A2.9,2.9,0,0,0,11.7,4.737a2.479,2.479,0,0,0-1.412-.424,2.641,2.641,0,0,0-1.923.814.57.57,0,0,1-.283.095.282.282,0,0,1-.168-.052.24.24,0,0,1-.108-.206c0-.246.324-.577.621-.781a3.292,3.292,0,0,1,1.848-.572H10.3a3.453,3.453,0,0,1,2.986,2,3.814,3.814,0,0,1-.618,4.081A.454.454,0,0,1,12.39,9.815Z"/>
</svg>
