<svg xmlns="http://www.w3.org/2000/svg" width="17" height="16" viewBox="0 0 17 16">
  <path id="Fill_3" data-name="Fill 3" d="M16.756,16c-.139,0-.314-.117-.391-.377a8.473,8.473,0,0,0-5.845-5.9,8.673,8.673,0,0,0-2.107-.259,7.733,7.733,0,0,0-5.152,1.852A8.926,8.926,0,0,0,.6,15.611c-.006.011-.137.264-.323.264a.255.255,0,0,1-.163-.067c-.233-.193-.065-.589.113-1.007l.024-.057c.026-.06.051-.12.074-.179A8.76,8.76,0,0,1,8.2,8.855h.2a8.839,8.839,0,0,1,5.224,1.787,9.307,9.307,0,0,1,3.309,4.773l.009.029.009.029a.587.587,0,0,1,.041.347A.238.238,0,0,1,16.756,16ZM8.451,7.911a4.017,4.017,0,0,1-3.582-2.2A4.154,4.154,0,0,1,6.715.371,3.85,3.85,0,0,1,8.366,0h.013a4.021,4.021,0,0,1,3.783,3.218,4.123,4.123,0,0,1-2.3,4.407A3.533,3.533,0,0,1,8.451,7.911ZM8.332.61A3.415,3.415,0,0,0,5.144,3.272,3.475,3.475,0,0,0,7.077,7.063,2.876,2.876,0,0,0,8.228,7.3,3.429,3.429,0,0,0,11.6,4.46a3.416,3.416,0,0,0-.8-2.669A3.19,3.19,0,0,0,8.438.612Z" transform="translate(0.001)"/>
</svg>
