<svg xmlns="http://www.w3.org/2000/svg" width="20" height="15" viewBox="0 0 20 15">
  <path id="Fill_2" data-name="Fill 2" d="M10,15c-2.548,0-5.1-.008-7.584-.024a2.533,2.533,0,0,1-2.4-2.461c-.021-3.328-.021-6.7,0-10.03A2.532,2.532,0,0,1,2.417.024C4.9.008,7.453,0,10,0s5.1.008,7.584.024a2.529,2.529,0,0,1,2.4,2.461c.019,3.328.019,6.7,0,10.03a2.5,2.5,0,0,1-.448,1.367.416.416,0,0,1-.321.383,2.386,2.386,0,0,1-1.631.711C15.1,14.992,12.549,15,10,15ZM7.658,8.074l-6.17,5.875a1.675,1.675,0,0,0,.938.315c2.625.016,5.174.023,7.575.023s4.95-.008,7.575-.023a1.713,1.713,0,0,0,1.049-.4L12.476,7.773l-.391.387a3.13,3.13,0,0,1-2.176.869,3.071,3.071,0,0,1-2.165-.871ZM1.033,1.51a1.782,1.782,0,0,0-.323.984C.689,5.816.689,9.184.71,12.506A1.788,1.788,0,0,0,1,13.441L7.158,7.579ZM18.9,1.418l-5.921,5.86,6.1,6.043a1.759,1.759,0,0,0,.217-.814c.019-3.322.019-6.691,0-10.012A1.8,1.8,0,0,0,18.9,1.418Zm-6.364-.7c-1.681,0-3.39,0-5.043.007S4.129.736,2.448.736a1.673,1.673,0,0,0-.911.283Q2.575,2.049,3.611,3.081C5.128,4.59,6.695,6.148,8.248,7.668A2.448,2.448,0,0,0,11.6,7.646L18.364.957a1.661,1.661,0,0,0-.787-.22C16.068.727,14.419.722,12.533.722Z" transform="translate(0)"/>
</svg>
