<svg xmlns="http://www.w3.org/2000/svg" width="14" height="18" viewBox="0 0 14 18">
  <path id="Fill_31" data-name="Fill 31" d="M6.278,18c-.972,0-1.842,0-2.66-.011A3.746,3.746,0,0,1,0,14.345V9.335C0,9.322.074,9.018.333,9H12c0-.307.014-.631.024-.935a12.383,12.383,0,0,0-.283-3.9A4.733,4.733,0,0,0,8.419.832,6.1,6.1,0,0,0,6.99.661a4.821,4.821,0,0,0-3.854,1.7A5.747,5.747,0,0,0,2,5.674C1.981,5.729,1.88,6,1.66,6L1.622,6a.246.246,0,0,1-.172-.1A1.581,1.581,0,0,1,1.4,4.915,5.567,5.567,0,0,1,4.963.292,6.456,6.456,0,0,1,6.871,0H7a5.47,5.47,0,0,1,4.285,1.854,6.369,6.369,0,0,1,1.376,3.79V9H13.7a.3.3,0,0,1,.293.331q0,.817,0,1.633v.014c0,1.1.007,2.24,0,3.386a3.747,3.747,0,0,1-3.641,3.622l-1.045,0C8.117,18,7.126,18,6.278,18ZM.666,9.669q0,.5,0,1.012v.891c0,.916,0,1.861,0,2.788a3.064,3.064,0,0,0,2.979,2.963l1.046,0H4.7c1.186,0,2.172.007,3.014.007.969,0,1.837,0,2.654-.011a3.068,3.068,0,0,0,2.961-2.982V9.669Zm6.273,5.779a1.9,1.9,0,0,1-1.321-.5,2.031,2.031,0,0,1-.388-2.2,1.875,1.875,0,0,1,1.741-1.253h.051a2.029,2.029,0,0,1,1.641,1A1.922,1.922,0,0,1,8.8,14.363,2.067,2.067,0,0,1,6.939,15.448Zm.047-3.286H6.98a1.355,1.355,0,0,0-1.178.908,1.24,1.24,0,0,0,.275,1.391,1.139,1.139,0,0,0,.8.3A1.561,1.561,0,0,0,8.158,14.1a1.148,1.148,0,0,0,.054-1.149A1.363,1.363,0,0,0,6.986,12.162Z"/>
</svg>
