<svg xmlns="http://www.w3.org/2000/svg" width="35.123" height="45.142" viewBox="0 0 35.123 45.142">
  <path id="Lock_round_2" data-name="Lock round 2" d="M16.812,45.142a17.552,17.552,0,0,1-9.966-32s0,0,0-.005a17.4,17.4,0,0,1,9.957-3.062,17.424,17.424,0,0,1,9.976,3.071h.006a17.55,17.55,0,0,1-9.977,32Zm.005-33.462a15.877,15.877,0,1,0,9.055,2.785h-.006A15.8,15.8,0,0,0,16.817,11.68Zm-.008,25.1A2.919,2.919,0,0,1,13.9,33.864V27.5a5,5,0,0,1,2.921-9.078,5.008,5.008,0,0,1,5.035,4.994A5.034,5.034,0,0,1,19.735,27.5v6.369a2.869,2.869,0,0,1-.846,2.056A2.914,2.914,0,0,1,16.809,36.785Zm.012-16.8a3.413,3.413,0,0,0-1.713,6.374.81.81,0,0,1,.4.7v6.809a1.3,1.3,0,0,0,2.235.916,1.269,1.269,0,0,0,.375-.913V27.056a.808.808,0,0,1,.4-.7,3.425,3.425,0,0,0-1.707-6.374Zm10.01-8.357a.808.808,0,0,1-.809-.806,9.2,9.2,0,1,0-18.408,0,.807.807,0,0,1-1.614,0,10.818,10.818,0,1,1,21.636,0A.806.806,0,0,1,26.831,11.628Z" transform="translate(0.745)"/>
</svg>
