<svg xmlns="http://www.w3.org/2000/svg" width="33.099" height="39.55" viewBox="0 0 33.099 39.55">
  <g id="paper-icon" transform="translate(-0.171 0.55)">
    <g id="Group_3" data-name="Group 3" transform="translate(0 3)">
      <g id="Rectangle_102" data-name="Rectangle 102" transform="translate(0.306)" fill="none" stroke-miterlimit="10">
        <path d="M1.194,18.258-.128,2.164A2,2,0,0,1,1.865,0H27.539a2,2,0,0,1,1.994,2.149L28.194,20.1l1.294,13.715A2,2,0,0,1,27.5,36H1.87A2,2,0,0,1-.123,33.832Z" stroke="none"/>
        <path d="M 27.49645805358887 34.90000152587891 C 27.75299644470215 34.90000152587891 27.98937797546387 34.79550933837891 28.16205787658691 34.60578155517578 C 28.33473777770996 34.41604995727539 28.41656684875488 34.17089080810547 28.39247703552246 33.91548156738281 L 27.09883689880371 20.20096015930176 L 27.09011650085449 20.10844993591309 L 27.09702682495117 20.01579093933105 L 28.43664741516113 2.066989898681641 C 28.45548629760742 1.814520001411438 28.37102699279785 1.573300004005432 28.19879722595215 1.387740015983582 C 28.02657699584961 1.202190041542053 27.79230690002441 1.100000023841858 27.53914642333984 1.100000023841858 L 1.865037202835083 1.100000023841858 C 1.610587239265442 1.100000023841858 1.375497221946716 1.203070044517517 1.203097224235535 1.390220046043396 C 1.030687212944031 1.577370047569275 0.9472172260284424 1.820099949836731 0.9680572152137756 2.073689937591553 L 2.290287256240845 18.16773986816406 L 2.297787189483643 18.25912094116211 L 2.290067195892334 18.35047912597656 L 0.9734072089195251 33.92417907714844 C 0.9519372582435608 34.17813873291016 1.03508722782135 34.42134857177734 1.207547187805176 34.60900115966797 C 1.380007266998291 34.79666137695313 1.615347266197205 34.90000152587891 1.870207190513611 34.90000152587891 L 27.49645805358887 34.90000152587891 M 27.49645805358887 36 L 1.870207190513611 36 C 0.6991672515869141 36 -0.221332773566246 34.99839019775391 -0.1226827725768089 33.83150863647461 L 1.193977236747742 18.25781059265137 L -0.128252774477005 2.16375994682312 C -0.2239827662706375 0.9985399842262268 0.6958872079849243 0 1.865037202835083 0 L 27.53914642333984 0 C 28.70236778259277 0 29.62017631530762 0.9888700246810913 29.53359794616699 2.148859977722168 L 28.19397735595703 20.09766006469727 L 29.48761749267578 33.81217956542969 C 29.59830665588379 34.9857292175293 28.67521667480469 36 27.49645805358887 36 Z" stroke="none" fill="#585858"/>
      </g>
    </g>
    <g id="Group_3-2" data-name="Group 3" transform="translate(3)">
      <path id="Rectangle_102-2" data-name="Rectangle 102" d="M.1,3.7C.046,3.242.018,2.981.018,2.981A2.629,2.629,0,0,1,2.678,0H26.706A2.656,2.656,0,0,1,29.4,2.977s-1.2,11.424-1.2,17.12c0,4.3,1.133,12.92,1.133,12.92A2.591,2.591,0,0,1,26.687,36H25.263" transform="translate(0.308)" fill="none" stroke="#585858" stroke-miterlimit="10" stroke-width="1.1"/>
    </g>
    <g id="Rectangle_106" data-name="Rectangle 106" transform="translate(7.5 10.5)" fill="none" stroke="#585858" stroke-miterlimit="10" stroke-width="1.1">
      <rect width="12" height="1.5" stroke="none"/>
      <rect x="0.55" y="0.55" width="10.9" height="0.4" fill="none"/>
    </g>
    <g id="Rectangle_106-2" data-name="Rectangle 106" transform="translate(7.5 15)" fill="none" stroke="#585858" stroke-miterlimit="10" stroke-width="1.1">
      <rect width="12" height="1.5" stroke="none"/>
      <rect x="0.55" y="0.55" width="10.9" height="0.4" fill="none"/>
    </g>
    <g id="Rectangle_106-3" data-name="Rectangle 106" transform="translate(7.5 19.5)" fill="none" stroke="#585858" stroke-miterlimit="10" stroke-width="1.1">
      <rect width="12" height="1.5" stroke="none"/>
      <rect x="0.55" y="0.55" width="10.9" height="0.4" fill="none"/>
    </g>
  </g>
</svg>
