<svg xmlns="http://www.w3.org/2000/svg" width="69.287" height="69.257" viewBox="0 0 69.287 69.257">
  <path id="Repeat_2" data-name="Repeat 2" d="M11.477,68.782.493,57.8a1.75,1.75,0,0,1-.374-.548,1.632,1.632,0,0,1,.344-1.765v-.006l.006-.006.012-.005,11-11a1.636,1.636,0,0,1,2.319,0,1.645,1.645,0,0,1,0,2.313l-8.208,8.2H45.64A20.384,20.384,0,0,0,66,34.622a1.639,1.639,0,0,1,3.278,0A23.668,23.668,0,0,1,45.64,58.261H5.588l8.208,8.2a1.64,1.64,0,0,1-2.319,2.319ZM0,34.628A23.659,23.659,0,0,1,23.63,10.993H63.694L55.486,2.8A1.64,1.64,0,0,1,57.805.477l11,11a1.636,1.636,0,0,1,0,2.319l-11,10.99a1.649,1.649,0,0,1-1.16.481,1.637,1.637,0,0,1-1.159-2.794l8.208-8.2H23.63A20.376,20.376,0,0,0,3.275,34.625a1.638,1.638,0,1,1-3.275,0Z" transform="translate(0.004 0)" fill="#0098ff"/>
</svg>
