<svg xmlns="http://www.w3.org/2000/svg" width="69.273" height="62.601" viewBox="0 0 69.273 62.601">
  <path id="User_X_2" data-name="User X 2" d="M55.209,62.822a1.249,1.249,0,0,1,0-1.773l.364-.369,4.709-4.709L55.2,50.894a1.255,1.255,0,0,1,.889-2.142,1.269,1.269,0,0,1,.889.368l5.077,5.073,2.205-2.2,1.841-1.837,1.024-1.024A1.255,1.255,0,0,1,68.908,50.9l-1.7,1.7-1.9,1.9-1.472,1.472,2.539,2.534,2.536,2.536a1.256,1.256,0,0,1-1.778,1.774L64.99,60.68l-2.93-2.93-2.93,2.93-2.146,2.142a1.25,1.25,0,0,1-1.774,0Zm-53.951.369A1.26,1.26,0,0,1,0,61.933c0-.17.188-17.059,16.478-24.481a1.176,1.176,0,0,1,.516-.118,1.276,1.276,0,0,1,1.1.647,18.942,18.942,0,0,0,33.087,0,1.25,1.25,0,0,1,1.093-.646,1.212,1.212,0,0,1,.519.117,27.5,27.5,0,0,1,10.57,8.337l-1.316,1.291-.52.506a23.978,23.978,0,0,0-3.059-3.38,24.955,24.955,0,0,0-5.7-3.983,21.468,21.468,0,0,1-36.262,0C4.943,46.056,2.937,57.355,2.6,60.68H50.071c-.025.121-.057.242-.088.359l-.01.039a2.5,2.5,0,0,0,0,1.707l.009.033c.032.121.066.247.091.372h0ZM20.031,28.55V15.2a14.607,14.607,0,1,1,29.214,0V28.55a14.607,14.607,0,0,1-29.214,0ZM22.538,15.2V28.552a12.1,12.1,0,1,0,24.2,0v0a12.1,12.1,0,1,1-24.2,0V15.2Z" transform="translate(0 -0.589)" fill="#0098ff"/>
</svg>
