<svg xmlns="http://www.w3.org/2000/svg" width="70.366" height="64.757" viewBox="0 0 70.366 64.757">
  <path id="User_V_2" data-name="User V 2" d="M.31,64.5a1.3,1.3,0,0,1-.92-.382A1.29,1.29,0,0,1-.99,63.2c0-.175.2-17.65,17.051-25.326a1.3,1.3,0,0,1,1.669.548,19.595,19.595,0,0,0,34.227,0,1.3,1.3,0,0,1,1.673-.548,28.578,28.578,0,0,1,9.776,7.186l-1.859,1.854A25.628,25.628,0,0,0,53.6,40.742a22.192,22.192,0,0,1-37.51,0C4.251,46.71,2.088,58.068,1.691,61.9H46.559l2.6,2.6Zm54.513-1.678L53.9,61.9l-5.248-5.252a1.3,1.3,0,0,1,1.84-1.834l5.241,5.248L64.6,51.211l1.88-1.88.679-.679a1.3,1.3,0,0,1,1.839,1.84l-1.25,1.25-1.931,1.926L57.573,61.9l-.914.92a1.306,1.306,0,0,1-.924.377A1.271,1.271,0,0,1,54.824,62.824ZM19.73,28.669V14.855a15.113,15.113,0,0,1,30.226,0V28.669a15.113,15.113,0,0,1-30.226,0Zm2.6-13.811V28.671a12.515,12.515,0,1,0,25.031,0v0a12.515,12.515,0,1,1-25.031,0V14.857Z" transform="translate(0.99 0.256)" fill="#0098ff"/>
</svg>
