<svg xmlns="http://www.w3.org/2000/svg" width="70.831" height="65.945" viewBox="0 0 70.831 65.945">
  <path id="Wallet_2" data-name="Wallet 2" d="M68.458,66.433H4.437a5.541,5.541,0,0,1-5.53-5.54V14.567a5.443,5.443,0,0,1,1.61-3.911A5.475,5.475,0,0,1,4.437,9.028H17.818a1.269,1.269,0,0,1,0,2.538H4.437a3,3,0,0,0-.006,6h8.328l16.7-16.7a1.287,1.287,0,0,1,.9-.379,1.271,1.271,0,0,1,.9.379l11.78,11.781,7.52-7.51a1.29,1.29,0,0,1,1.79,0L64.773,17.565H68.46a1.272,1.272,0,0,1,1.273,1.267l0,21.016,0,.014v8.533c0,.01,0,.013,0,.013V65.164A1.273,1.273,0,0,1,68.458,66.433ZM1.445,19.229V60.893a3,3,0,0,0,2.994,3H67.2V49.668H42.957a1.271,1.271,0,0,1-1.266-1.273V39.862a1.269,1.269,0,0,1,1.266-1.269H67.2V20.108H4.433s-.008,0-.012-.007a.017.017,0,0,0-.011-.006,5.3,5.3,0,0,1-1.865-.365,3.377,3.377,0,0,1-.41-.178l-.006,0-.006,0-.014-.007-.053-.026c-.059-.03-.122-.056-.183-.081l-.02-.008-.029-.012-.005,0-.005,0-.007,0A2.2,2.2,0,0,1,1.445,19.229Zm42.779,21.9v6H67.192v-6ZM30.355,3.557h0l-14,14.011H44.346L30.355,3.557Zm21.1,4.268-6.61,6.622,3.109,3.119H61.182ZM68.469,11.57H59.983a1.266,1.266,0,0,1-.905-.375,1.253,1.253,0,0,1-.368-.894,1.273,1.273,0,0,1,1.273-1.269h8.486a1.269,1.269,0,0,1,0,2.538Z" transform="translate(1.093 -0.488)" fill="#0098ff"/>
</svg>
